<svg width="69" height="67" viewBox="0 0 69 67" fill="none" xmlns="http://www.w3.org/2000/svg">
<path d="M34.5 0.75C30.0679 0.75 25.6792 1.62297 21.5844 3.31907C17.4897 5.01516 13.7691 7.50117 10.6351 10.6351C4.30579 16.9645 0.75 25.5489 0.75 34.5C0.75 49.4175 10.4362 62.0737 23.835 66.5625C25.5225 66.8325 26.0625 65.7863 26.0625 64.875C26.0625 64.0987 26.0625 61.9725 26.0625 59.1712C16.7137 61.1962 14.7225 54.6487 14.7225 54.6487C13.17 50.7337 10.9762 49.6875 10.9762 49.6875C7.905 47.595 11.2125 47.6625 11.2125 47.6625C14.5875 47.8987 16.3762 51.1388 16.3762 51.1388C19.3125 56.2688 24.2737 54.75 26.1975 53.94C26.5012 51.7463 27.3787 50.2613 28.3237 49.4175C20.8312 48.5738 12.9675 45.6712 12.9675 32.8125C12.9675 29.0662 14.25 26.0625 16.4437 23.6662C16.1062 22.8225 14.925 19.3125 16.7812 14.7563C16.7812 14.7563 19.6162 13.845 26.0625 18.1988C28.7287 17.4563 31.6312 17.085 34.5 17.085C37.3687 17.085 40.2712 17.4563 42.9375 18.1988C49.3837 13.845 52.2187 14.7563 52.2187 14.7563C54.075 19.3125 52.8937 22.8225 52.5562 23.6662C54.75 26.0625 56.0325 29.0662 56.0325 32.8125C56.0325 45.705 48.135 48.54 40.6087 49.3837C41.8237 50.43 42.9375 52.4888 42.9375 55.6275C42.9375 60.15 42.9375 63.795 42.9375 64.875C42.9375 65.7863 43.4775 66.8663 45.1987 66.5625C58.5975 62.04 68.25 49.4175 68.25 34.5C68.25 30.0679 67.377 25.6792 65.6809 21.5844C63.9848 17.4897 61.4988 13.7691 58.3648 10.6351C55.2309 7.50117 51.5103 5.01516 47.4156 3.31907C43.3208 1.62297 38.9321 0.75 34.5 0.75V0.75Z" fill="white"/>
</svg>
