<svg width="128" height="128" viewBox="0 0 128 128" fill="none" xmlns="http://www.w3.org/2000/svg">
<path fill-rule="evenodd" clip-rule="evenodd" d="M74.182 2.12341C73.3067 2.12341 72.4939 2.31759 71.7436 2.57648C73.3379 3.67678 74.2133 5.13308 74.6509 6.78353C74.6823 7.01006 74.7447 7.17188 74.776 7.3984C74.8074 7.59258 74.8385 7.78675 74.8385 7.98093C74.9636 10.8288 74.1195 11.1848 73.5255 12.8676C72.6189 15.0358 72.869 17.3659 73.9632 19.2429C74.057 19.4694 74.182 19.7283 74.3383 19.9548C73.1504 11.7673 79.7466 10.5375 80.9658 7.98093C81.0596 5.74795 79.2776 4.2593 77.8709 3.22372C76.5266 2.38231 75.3074 2.12341 74.182 2.12341ZM84.1232 3.96805C83.9981 4.71237 84.0919 4.5182 84.0607 4.90654C84.0294 5.16543 84.0294 5.48906 83.9983 5.74795C83.9358 6.00685 83.8731 6.26574 83.7794 6.52465C83.7169 6.78354 83.6231 7.04243 83.5293 7.30132C83.4042 7.56023 83.3105 7.78675 83.1854 8.04565C83.0917 8.17515 83.0291 8.30454 82.9354 8.43399C82.8729 8.53108 82.8103 8.62817 82.7478 8.72525C82.5915 8.95179 82.4352 9.17832 82.2789 9.37249C82.0913 9.56666 81.935 9.79319 81.7161 9.95501V9.98741C81.5286 10.1492 81.341 10.3434 81.1222 10.5052C80.4657 11.023 79.7154 11.4113 79.0276 11.8968C78.8088 12.0586 78.59 12.188 78.4024 12.3822C78.1836 12.544 77.996 12.7058 77.8085 12.9C77.5896 13.0942 77.4333 13.2883 77.2457 13.5149C77.0894 13.709 76.9019 13.9356 76.7768 14.1621C76.6205 14.3886 76.4642 14.6152 76.3391 14.8417C76.2141 15.1006 76.1203 15.3271 75.9953 15.586C75.9015 15.8449 75.8077 16.0715 75.7452 16.3303C75.6514 16.6216 75.5889 16.8805 75.5263 17.1394C75.495 17.2689 75.495 17.4307 75.4639 17.5601C75.4325 17.6896 75.4325 17.819 75.4014 17.9485C75.4014 18.2073 75.3701 18.4986 75.3701 18.7575C75.3701 18.9517 75.3701 19.1458 75.4014 19.34C75.4014 19.5989 75.4327 19.8578 75.4952 20.1491C75.5265 20.4079 75.589 20.6668 75.6515 20.9258C75.7453 21.1846 75.8078 21.4435 75.9016 21.7024C75.9641 21.8642 76.0579 22.0261 76.1204 22.1555L68.9302 19.2753C67.711 18.9193 66.5231 18.5957 65.3039 18.3044C64.6474 18.1426 63.9909 17.9808 63.3344 17.819C61.4587 17.4307 59.5518 17.1394 57.6448 16.9452C57.5823 16.9452 57.551 16.9128 57.4885 16.9128C55.6128 16.7187 53.7684 16.6216 51.8927 16.6216C50.5171 16.6216 49.1416 16.6862 47.7974 16.7834C45.8904 16.9129 43.9835 17.1717 42.0765 17.4953C41.6076 17.56 41.1387 17.6572 40.6697 17.7542C39.7006 17.9484 38.7628 18.1749 37.8562 18.4015C37.3873 18.531 36.9183 18.6604 36.4494 18.7898C35.9805 18.984 35.5428 19.2105 35.1051 19.4047C34.7613 19.5665 34.4174 19.7283 34.0735 19.8901C34.011 19.9225 33.9484 19.9225 33.9172 19.9548C33.6046 20.1166 33.3232 20.246 33.0419 20.4079C32.9481 20.4403 32.8856 20.4725 32.8231 20.505C32.4792 20.6668 32.1353 20.8609 31.854 21.0227C31.6351 21.1198 31.4163 21.2493 31.2287 21.3464C31.1349 21.411 31.0099 21.4759 30.9474 21.5082C30.666 21.67 30.3847 21.8318 30.1346 21.9936C29.8532 22.1554 29.6031 22.3172 29.3843 22.479C29.1655 22.6408 28.9466 22.7703 28.759 22.9321C28.7277 22.9645 28.6966 22.9645 28.6653 22.9968C28.4777 23.1263 28.2589 23.288 28.0713 23.4498C28.0713 23.4498 28.04 23.4822 28.0088 23.5145C27.8525 23.644 27.6962 23.7734 27.5399 23.9028C27.4774 23.9353 27.4148 23.9999 27.3523 24.0323C27.196 24.1618 27.0397 24.3236 26.8834 24.4531C26.8521 24.5177 26.7896 24.5501 26.7583 24.5826C26.5707 24.7767 26.3832 24.9385 26.1956 25.1327C26.1643 25.1327 26.1643 25.1651 26.1331 25.1974C25.9455 25.3592 25.758 25.5534 25.5704 25.7475C25.5391 25.7799 25.5391 25.8122 25.5079 25.8122C25.3516 25.974 25.1953 26.1358 25.039 26.33C24.9765 26.3947 24.8827 26.4595 24.8202 26.5242C24.6639 26.7183 24.4763 26.9125 24.2887 27.1067C24.2574 27.1714 24.195 27.2038 24.1636 27.2685C23.9135 27.5274 23.6947 27.7863 23.4446 28.0452C23.4133 28.0776 23.3821 28.1099 23.3508 28.1423C22.8506 28.6924 22.3192 29.2426 21.7565 29.728C21.1938 30.2458 20.5998 30.7312 20.0058 31.1519C19.3806 31.605 18.7866 31.9933 18.1301 32.3817C17.5049 32.7376 16.8484 33.0613 16.1607 33.3525C15.5042 33.6438 14.8164 33.9027 14.1287 34.1292C12.8157 34.4205 11.4714 34.9706 10.3147 35.0677C10.0646 35.0677 9.78328 35.1324 9.53319 35.1648C9.25184 35.2295 9.00175 35.2943 8.75166 35.359C8.50157 35.4561 8.25146 35.5531 8.00137 35.6502C7.75128 35.7473 7.50119 35.8768 7.2511 36.0062C7.03226 36.168 6.78217 36.2975 6.56334 36.4593C6.34451 36.6211 6.12567 36.8153 5.9381 37.0094C5.71928 37.1713 5.50044 37.3978 5.31287 37.5919C5.1253 37.8185 4.93773 38.0127 4.78142 38.2392C4.62512 38.4981 4.43755 38.7246 4.3125 38.9835C4.15619 39.2101 3.99989 39.4689 3.87484 39.7278C3.74974 40.0191 3.62475 40.278 3.53096 40.5693C3.43717 40.8281 3.34339 41.1194 3.2496 41.4107C3.18713 41.6696 3.12451 41.9284 3.0933 42.1873C3.0933 42.2198 3.06199 42.252 3.06199 42.2844C2.99951 42.5757 2.99951 42.964 2.9682 43.1582C2.93689 43.3847 2.90573 43.5789 2.90573 43.8055C2.90573 43.935 2.90573 44.0967 2.93704 44.2262C2.96835 44.4527 2.99951 44.6469 3.06214 44.8411C3.12461 45.0352 3.18723 45.2294 3.28096 45.4235V45.456C3.37474 45.6501 3.4998 45.8443 3.62483 46.0385C3.74993 46.2326 3.87494 46.4268 4.03124 46.621C4.18755 46.7828 4.37512 46.977 4.56269 47.1388C4.75026 47.333 4.93783 47.4948 5.15666 47.6566C5.90694 48.3362 6.09451 48.5627 7.06362 49.0805C7.21992 49.1776 7.37624 49.2423 7.56381 49.3394C7.59513 49.3394 7.62629 49.3718 7.6576 49.3718C7.6576 49.4365 7.6576 49.4689 7.68891 49.5336C7.72022 49.7925 7.7827 50.0514 7.84522 50.3103C7.90769 50.6016 8.00154 50.8605 8.09532 51.087C8.18911 51.2812 8.25163 51.4753 8.34541 51.6695C8.37672 51.7342 8.40789 51.799 8.4392 51.8313C8.5643 52.0902 8.68929 52.3168 8.81433 52.5433C8.97065 52.7698 9.12695 52.9963 9.28325 53.2229C9.43956 53.4171 9.62713 53.6436 9.8147 53.8378C10.0023 54.0319 10.1898 54.1937 10.4087 54.3879C10.4087 54.3879 10.44 54.4204 10.4712 54.4204C10.6587 54.5822 10.8463 54.744 11.0339 54.8734C11.2527 55.0352 11.4715 55.1647 11.7216 55.2941C11.9405 55.4236 12.1905 55.553 12.4406 55.6501C12.6282 55.7472 12.847 55.8119 13.0659 55.8766C13.0972 55.9091 13.1283 55.9091 13.191 55.9413C13.3161 55.9738 13.4723 56.006 13.5974 56.0384C13.5036 57.7859 13.4723 59.4364 13.7225 60.0189C14.0038 60.6662 15.3793 58.6921 16.7548 56.4268C16.5673 58.6597 16.4422 61.281 16.7548 62.0577C17.0987 62.8668 18.9744 60.3425 20.6 57.5594C42.7645 52.2521 62.9908 68.1094 65.1166 90.5039C64.7102 87.0088 60.5524 85.0671 58.6454 85.5525C57.7076 87.9473 56.1132 91.0217 53.5498 92.931C53.7686 90.7951 53.6749 88.5945 53.2372 86.4586C52.5494 89.4359 51.2052 92.2191 49.3607 94.6138C46.3909 94.8404 43.421 93.3517 41.8579 91.1187C41.7328 91.0217 41.7016 90.8275 41.6078 90.698C41.514 90.4715 41.4202 90.245 41.3577 90.0184C41.2639 89.7919 41.2014 89.5654 41.1702 89.3388C41.1388 89.1123 41.1388 88.8858 41.1388 88.6269C41.1388 88.4651 41.1388 88.3033 41.1388 88.1415C41.1702 87.9149 41.2326 87.6884 41.2951 87.4618C41.3576 87.2353 41.4202 87.0088 41.514 86.7822C41.6391 86.5557 41.7328 86.3292 41.8891 86.1027C42.4206 84.5493 42.4206 83.2872 41.4515 82.5428C41.2639 82.4133 41.0763 82.3163 40.8575 82.2192C40.7324 82.1868 40.5761 82.1221 40.4511 82.0897C40.3573 82.0573 40.2948 82.025 40.201 81.9926C39.9822 81.9279 39.7633 81.8631 39.5445 81.8308C39.3257 81.7661 39.1068 81.7337 38.888 81.7337C38.6692 81.7013 38.4191 81.669 38.2003 81.669C38.0439 81.669 37.8876 81.7014 37.7313 81.7014C37.4812 81.7014 37.2624 81.7339 37.0436 81.7985C36.8247 81.831 36.6059 81.8632 36.3871 81.928C36.1682 81.9927 35.9494 82.0575 35.7306 82.1546C35.5118 82.2517 35.3242 82.3487 35.1053 82.4458C34.9178 82.5429 34.7302 82.6724 34.5114 82.7694C27.2274 87.6885 31.5728 99.2093 36.5434 102.543C34.6677 102.899 32.7607 103.319 32.2293 103.74C32.198 103.772 32.1668 103.805 32.1668 103.805C33.5111 104.646 34.9178 105.358 36.3871 105.973C38.3879 106.653 40.5137 107.267 41.4515 107.526V107.559C44.0462 108.109 46.6722 108.303 49.3294 108.141C63.1783 107.138 74.5263 96.232 76.5896 81.8633C76.6521 82.1546 76.7147 82.4135 76.7772 82.7047C76.871 83.2872 76.996 83.9021 77.0585 84.517V84.5494C77.121 84.8407 77.1523 85.1319 77.1836 85.3908V85.5203C77.2149 85.8116 77.2461 86.1029 77.2461 86.3617C77.2774 86.7177 77.3086 87.0737 77.3086 87.4297V87.9475C77.3086 88.1093 77.3399 88.3035 77.3399 88.4653C77.3399 88.6595 77.3086 88.8536 77.3086 89.0478V89.5009C77.3086 89.7274 77.2772 89.9216 77.2772 90.1481C77.2772 90.2776 77.2772 90.407 77.2459 90.5688C77.2459 90.7953 77.2146 91.0219 77.2146 91.2808C77.1833 91.3779 77.1833 91.4749 77.1833 91.572C77.152 91.8309 77.1208 92.0575 77.0895 92.3164C77.0895 92.4134 77.0895 92.5105 77.0582 92.6076C77.0268 92.9312 76.9644 93.2225 76.9331 93.5461V93.5786V93.611C76.8706 93.9022 76.808 94.2258 76.7455 94.5171V94.6142C76.683 94.9054 76.6204 95.1967 76.5579 95.4879C76.5579 95.5204 76.5266 95.585 76.5266 95.6174C76.4642 95.9087 76.4015 96.2 76.3078 96.4912V96.5883C76.214 96.9119 76.1202 97.2032 76.0577 97.4944C76.0264 97.5268 76.0264 97.5591 76.0264 97.5591C75.9326 97.8827 75.8388 98.2063 75.7451 98.53C75.62 98.8536 75.5262 99.1448 75.4012 99.4685C75.2761 99.7921 75.1824 100.116 75.0573 100.407C74.9322 100.731 74.8072 101.022 74.6822 101.345H74.6508C74.5257 101.637 74.4007 101.96 74.2444 102.252C74.2131 102.349 74.1819 102.413 74.1506 102.478C74.1193 102.511 74.1193 102.543 74.0881 102.575C72.0562 106.815 69.055 110.536 65.3036 113.449C65.0535 113.611 64.8034 113.805 64.5534 113.999C64.4909 114.064 64.397 114.096 64.3345 114.161C64.1157 114.323 63.8969 114.484 63.6468 114.646L63.7406 114.84H63.7719C64.2095 114.776 64.6472 114.711 65.0848 114.646H65.1162C65.929 114.517 66.7418 114.355 67.5546 114.193C67.7734 114.161 68.0235 114.096 68.2423 114.031C68.3986 113.999 68.5237 113.967 68.68 113.934C68.8988 113.902 69.1176 113.837 69.3365 113.805C69.524 113.74 69.7116 113.708 69.8992 113.643C73.0253 112.866 76.0577 111.798 78.965 110.536C73.9945 117.559 67.3357 123.222 59.5516 126.944C63.1467 126.685 66.7418 126.07 70.2118 125.034C82.8102 121.183 93.4079 112.413 99.754 100.601C98.4723 108.077 95.5962 115.196 91.3447 121.41C94.377 119.339 97.1593 116.944 99.6915 114.225C106.694 106.653 111.29 97.0413 112.853 86.7178C113.916 91.831 114.228 97.106 113.759 102.316C136.33 69.7278 115.635 35.9419 106.975 27.0424C106.944 26.9777 106.913 26.9453 106.913 26.8806C106.882 26.913 106.882 26.913 106.882 26.9453C106.882 26.9128 106.882 26.9128 106.85 26.8806C106.85 27.2689 106.819 27.6573 106.788 28.0456C106.694 28.7899 106.6 29.5019 106.475 30.2139C106.319 30.9258 106.131 31.6378 105.944 32.3497C105.725 33.0293 105.475 33.7413 105.194 34.4209C104.912 35.0681 104.6 35.7477 104.256 36.395C103.912 37.0099 103.537 37.6571 103.13 38.2396C102.724 38.8545 102.286 39.437 101.849 39.9871C101.38 40.5697 100.879 41.0875 100.379 41.6053C100.067 41.8965 99.7853 42.1554 99.4726 42.4143C99.2226 42.6408 99.0037 42.835 98.7536 43.0615C98.1909 43.5146 97.6282 43.9353 97.003 44.3237C96.409 44.712 95.7838 45.1003 95.1586 45.424C94.5021 45.7476 93.8456 46.0388 93.1891 46.3301C92.5326 46.589 91.8448 46.8155 91.157 47.0097C90.4693 47.2039 89.7503 47.3657 89.0625 47.4951C88.3435 47.6246 87.6245 47.6893 86.9367 47.754C86.4366 47.7864 85.9364 47.8187 85.4362 47.8187C84.7172 47.8187 83.9982 47.754 83.3104 47.6892C82.5914 47.6245 81.8724 47.5274 81.1846 47.3656C80.4656 47.2361 79.7778 47.0419 79.0901 46.8154H79.0588C79.7465 46.7508 80.4343 46.6859 81.122 46.5565C81.841 46.427 82.5288 46.2653 83.2166 46.0711C83.9043 45.8769 84.5921 45.6504 85.2486 45.3915C85.9363 45.1326 86.5928 44.809 87.2181 44.4854C87.8745 44.1617 88.4685 43.8058 89.0938 43.4174C89.6877 42.9967 90.2817 42.576 90.8444 42.1229C91.4071 41.6699 91.9385 41.1845 92.4388 40.6667C92.9702 40.1812 93.4391 39.6311 93.908 39.0809C94.377 38.4984 94.8146 37.9159 95.221 37.3334C95.2835 37.2363 95.3461 37.1068 95.4086 37.0098C95.7212 36.492 96.0338 35.9742 96.3152 35.4564C96.6591 34.8091 96.9717 34.1619 97.253 33.4823C97.5344 32.8027 97.7845 32.1231 98.0033 31.4111C98.2221 30.7315 98.3785 30.0196 98.5348 29.3076C98.6599 28.5633 98.7848 27.8513 98.8474 27.1394C98.9099 26.395 98.9725 25.6507 98.9725 24.9388C98.9725 24.421 98.9411 23.9032 98.91 23.3854C98.8475 22.6411 98.7537 21.9291 98.6599 21.2171C98.5348 20.4728 98.3786 19.7609 98.191 19.0489C97.9722 18.3693 97.7533 17.6573 97.5032 16.9777C97.2531 16.2981 96.9405 15.6185 96.6279 14.9713C96.284 14.324 95.9401 13.6768 95.565 13.0619C95.1586 12.4471 94.7522 11.8645 94.3145 11.282C93.8456 10.7319 93.3767 10.1817 92.8765 9.63156C92.6264 9.37267 92.345 9.08141 92.0637 8.82252C90.6569 7.68985 89.1876 6.6219 87.7183 5.65105C87.4995 5.52155 87.3119 5.42451 87.0931 5.32742C86.0615 4.64783 85.0923 4.29165 84.1232 3.96805Z" fill="#E0234E"/>
</svg>
